<mxfile host="app.diagrams.net" modified="2024-07-05T20:31:54.118Z" agent="Mozilla/5.0 (Windows NT 10.0; Win64; x64) AppleWebKit/537.36 (KHTML, like Gecko) Chrome/128.0.0.0 Safari/537.36" version="24.6.4" etag="W1P762-G1Q0doSJ_ARxW" type="github">
  <diagram name="페이지-1" id="Ocvz5jVckaRLlsu_y398">
    <mxGraphModel>
      <root>
        <mxCell id="0" />
        <mxCell id="1" parent="0" />
      </root>
    </mxGraphModel>
  </diagram>
</mxfile>
